Coordinates
version=1
nRows=18
nColumns=22
inDegrees=yes

Units are S.I. units (second, meters, Newtons, ...)
If the header above contains a line with 'inDegrees', this indicates whether rotational values are in degrees (yes) or radians (no).

endheader
time	pelvis_tilt	pelvis_list	pelvis_rotation	pelvis_tx	pelvis_ty	pelvis_tz	hip_flexion_r	hip_adduction_r	hip_rotation_r	knee_angle_r	ankle_angle_r	subtalar_angle_r	hip_flexion_l	hip_adduction_l	hip_rotation_l	knee_angle_l	ankle_angle_l	subtalar_angle_l	lumbar_extension	lumbar_bending	lumbar_rotation
      1.28000000	     -5.70808621	     -7.73186514	      6.17571999	     -1.02318859	      0.97317299	      0.13954235	      7.91465028	      7.00343573	     -4.28044249	    -14.54614343	     10.56992405	      1.56125087	      6.48726624	     -6.07052651	      7.10567620	    -10.41100435	     13.39115183	     -1.91965270	      3.82641112	      5.71149533	     -7.86591155
      1.29000000	     -5.73156514	     -7.71832018	      6.23796729	     -1.02300469	      0.97309721	      0.13886340	      7.94485303	      6.93947547	     -4.32638277	    -14.58700908	     10.60312424	      1.59422774	      6.54441985	     -6.00262053	      7.18823160	    -10.48124785	     13.43237008	     -1.94169057	      3.78372382	      5.71458924	     -7.85328352
      1.30000000	     -5.77189438	     -7.71594114	      6.31573510	     -1.02283387	      0.97299369	      0.13815142	      8.00560690	      6.88093724	     -4.39995388	    -14.64664828	     10.64563484	      1.64206503	      6.64161965	     -5.93858785	      7.30243895	    -10.58137744	     13.45846814	     -1.97098374	      3.75855066	      5.72176353	     -7.85883652
      1.31000000	     -5.77831178	     -7.70870039	      6.37524383	     -1.02259766	      0.97292653	      0.13743555	      8.02052914	      6.82595391	     -4.42996766	    -14.69747858	     10.66527676	      1.65375461	      6.70469749	     -5.87251905	      7.38922598	    -10.70103257	     13.54526796	     -1.99195996	      3.69515491	      5.72733485	     -7.84839188
      1.32000000	     -5.79205180	     -7.71141385	      6.46150708	     -1.02236742	      0.97283125	      0.13666343	      8.05831840	      6.77331918	     -4.50733684	    -14.77178741	     10.70523263	      1.66685828	      6.80745153	     -5.80623872	      7.51194648	    -10.86594100	     13.63230740	     -2.01875805	      3.64000154	      5.73860821	     -7.86928706
      1.33000000	     -5.84747458	     -7.74317187	      6.55899450	     -1.02217649	      0.97267732	      0.13585827	      8.16107698	      6.74018827	     -4.61744548	    -14.87082031	     10.73726100	      1.69706322	      6.98809925	     -5.75613590	      7.69768254	    -11.07638571	     13.69032158	     -2.06024112	      3.62962550	      5.77661721	     -7.91968949
      1.34000000	     -5.84267206	     -7.75356971	      6.62929368	     -1.02187673	      0.97258956	      0.13504887	      8.17707261	      6.69900390	     -4.66316229	    -14.94844243	     10.76906353	      1.70634091	      7.10435187	     -5.68969594	      7.81865943	    -11.31369390	     13.82030175	     -2.10014155	      3.55161340	      5.79952951	     -7.92731583
      1.35000000	     -5.89296230	     -7.80879444	      6.74479984	     -1.02166252	      0.97240806	      0.13417667	      8.29112622	      6.68549911	     -4.78786909	    -15.07595535	     10.80596407	      1.73795878	      7.33047509	     -5.64895208	      8.04379902	    -11.60726058	     13.90829003	     -2.17035043	      3.53326057	      5.86005223	     -7.99201721
      1.36000000	     -5.91660757	     -7.84910641	      6.83656725	     -1.02137743	      0.97224444	      0.13329598	      8.37139334	      6.66286144	     -4.86981794	    -15.20677253	     10.85443093	      1.76837973	      7.53207619	     -5.59307912	      8.23160067	    -11.93010450	     14.03324573	     -2.25512131	      3.48334795	      5.90959815	     -8.02821378
      1.37000000	     -5.89207458	     -7.86596310	      6.90969090	     -1.02101005	      0.97213104	      0.13239207	      8.38742677	      6.62558122	     -4.90103216	    -15.33031233	     10.90888749	      1.78095871	      7.67091334	     -5.51721207	      8.38155313	    -12.25469308	     14.18893545	     -2.31919823	      3.37445153	      5.94102662	     -8.03326680
      1.38000000	     -5.94687596	     -7.92611295	      7.02561150	     -1.02072479	      0.97188299	      0.13143113	      8.55482490	      6.60721240	     -5.02610573	    -15.55231634	     10.97660436	      1.83830763	      7.93001232	     -5.46386867	      8.63953289	    -12.61191031	     14.28526974	     -2.45093267	      3.35892714	      6.00530504	     -8.12094233
      1.39000000	     -5.90579173	     -7.93399342	      7.08470726	     -1.02027708	      0.97174682	      0.13048518	      8.59907669	      6.55759201	     -5.05179468	    -15.76622434	     11.07093894	      1.85322090	      8.04059675	     -5.37880406	      8.77631625	    -12.93745245	     14.44266124	     -2.52521618	      3.23043831	      6.02906663	     -8.10973702
      1.40000000	     -5.96231627	     -7.95260846	      7.19071531	     -1.01993186	      0.97145259	      0.12945568	      8.82605992	      6.48723946	     -5.15194663	    -16.10751832	     11.19021403	      1.93767350	      8.27449488	     -5.27756901	      9.01175743	    -13.27042064	     14.52415380	     -2.68874292	      3.20885738	      6.04725873	     -8.19083638
      1.41000000	     -5.95769187	     -7.93752397	      7.25840893	     -1.01946493	      0.97121271	      0.12844088	      9.01108592	      6.39377435	     -5.19534535	    -16.50979323	     11.33874419	      2.00377108	      8.39791374	     -5.16071395	      9.16407742	    -13.55843668	     14.64063290	     -2.82328271	      3.11684671	      6.03704916	     -8.22358194
      1.42000000	     -5.92383765	     -7.89426960	      7.32092422	     -1.01891104	      0.97097956	      0.12739978	      9.20561134	      6.27191379	     -5.22648778	    -16.99844517	     11.51684410	      2.03397821	      8.45147982	     -5.02481224	      9.27705491	    -13.79682749	     14.76169822	     -2.91634608	      2.99236240	      5.99931564	     -8.27142534
      1.43000000	     -5.93641514	     -7.83224286	      7.37504098	     -1.01835635	      0.97066137	      0.12633180	      9.51605345	      6.11646771	     -5.25275069	    -17.60805065	     11.69767242	      2.10744609	      8.52987971	     -4.86259471	      9.40743401	    -14.00266568	     14.85391942	     -3.04979665	      2.91406037	      5.93509433	     -8.29558297
      1.44000000	     -5.88716103	     -7.71950136	      7.42724865	     -1.01766901	      0.97038047	      0.12523318	      9.79966472	      5.91537394	     -5.25625605	    -18.31139561	     11.92679119	      2.11403661	      8.49591082	     -4.66533012	      9.46657717	    -14.15409555	     14.96641305	     -3.12090874	      2.76630429	      5.82317150	     -8.34560015
      1.45000000	     -5.87042231	     -7.56677772	      7.46543867	     -1.01694427	      0.97002482	      0.12413000	     10.19354953	      5.66324203	     -5.24693701	    -19.16092865	     12.16487367	      2.13439351	      8.45861150	     -4.42665328	      9.51543361	    -14.25925436	     15.05679459	     -3.20271710	      2.64803647	      5.66167589	     -8.37326308
